<?xml version="1.0" encoding="utf-8"?>
<!-- Generator: Adobe Illustrator 26.4.1, SVG Export Plug-In . SVG Version: 6.00 Build 0)  -->
<svg version="1.2" baseProfile="tiny" id="Layer_1" xmlns="http://www.w3.org/2000/svg" xmlns:xlink="http://www.w3.org/1999/xlink"
	 x="0px" y="0px" viewBox="0 0 487 87" overflow="visible" xml:space="preserve">
<g>
	<path fill="#F77017" d="M53.3,58.3c0,5-2.6,7.1-7.7,7.1H30.6c-4.8,0-7.7-2-7.7-7.1V27.7c0-4.8,2.6-7.1,7.7-7.1h15.1
		c4.9,0,7.7,2,7.7,7.1V58.3z M41.8,55.1V30.9h-7.3v24.2H41.8z"/>
	<path fill="#F77017" d="M88.2,58.1c0,5.3-2.8,7.3-7.9,7.3H65.7c-5.1,0-7.8-2-7.8-7.3V20.6h11.5v34.5h7.3V20.6h11.5V58.1z"/>
	<path fill="#F77017" d="M122.4,65.4h-11.5V50.3h-6.6v15.1H92.8V20.6h21.7c5.1,0,7.9,2,7.9,7.3v11.5c0,3.4-1.6,5-4.1,5.8v0.1
		c2.5,0.3,4.1,1.9,4.1,5.3V65.4z M110.9,40.1v-9.2h-6.6v9.2H110.9z"/>
</g>
<g>
	<path fill="#FFFFFF" d="M150.4,20.3H162c0.6,0,1.4,0,2.4,0.1c1,0,2.1,0.2,3.2,0.4c1.2,0.2,2.3,0.5,3.5,1c1.2,0.5,2.3,1.1,3.2,2
		c1,0.9,1.7,2,2.4,3.3c0.6,1.3,0.9,2.9,0.9,4.8c0,2.1-0.4,3.8-1.1,5.2c-0.7,1.4-1.6,2.5-2.7,3.3c-1.1,0.8-2.3,1.5-3.6,1.9
		c-1.3,0.4-2.6,0.7-3.8,0.9l12.8,21.1h-4.7l-12.3-20.9h-7.6v20.9h-4.1V20.3z M154.5,39.6h8.7c2.2,0,3.9-0.3,5.2-0.8
		c1.3-0.5,2.4-1.2,3.1-2s1.3-1.6,1.5-2.5c0.3-0.9,0.4-1.7,0.4-2.5c0-0.7-0.1-1.6-0.4-2.5c-0.3-0.9-0.8-1.8-1.5-2.5
		c-0.7-0.8-1.8-1.4-3.1-2c-1.3-0.5-3.1-0.8-5.2-0.8h-8.7V39.6z"/>
	<path fill="#FFFFFF" d="M200.7,20.3h4.2l18.5,43.9h-4.6L214,52.5h-23.3l-5,11.7h-4.3L200.7,20.3z M202.6,24.7l-10.2,24.1h20.2
		L202.6,24.7z"/>
	<path fill="#FFFFFF" d="M229.2,20.3h13.6c3.8,0,7,0.5,9.7,1.4s4.9,2.1,6.6,3.6c1.8,1.4,3.1,3.1,4.2,4.8c1,1.8,1.8,3.4,2.2,5.1
		c0.5,1.6,0.8,3.1,0.9,4.4c0.1,1.3,0.2,2.2,0.2,2.8c0,0.5-0.1,1.5-0.2,2.8c-0.1,1.3-0.4,2.8-0.9,4.4c-0.5,1.6-1.2,3.3-2.2,5.1
		c-1,1.8-2.4,3.4-4.2,4.8c-1.8,1.4-4,2.6-6.6,3.6s-5.9,1.4-9.7,1.4h-13.6V20.3z M233.3,60.5h8.4c2.9,0,5.6-0.4,8.1-1.1
		c2.5-0.7,4.7-1.8,6.6-3.3c1.9-1.5,3.3-3.4,4.4-5.7c1.1-2.3,1.6-5,1.6-8.2c0-3.1-0.5-5.9-1.6-8.2c-1.1-2.3-2.5-4.2-4.4-5.7
		c-1.9-1.5-4.1-2.6-6.6-3.3c-2.5-0.7-5.2-1.1-8.1-1.1h-8.4V60.5z"/>
	<path fill="#FFFFFF" d="M275.7,20.3h4.1v43.9h-4.1V20.3z"/>
	<path fill="#FFFFFF" d="M289,42.2c0-3.4,0.6-6.4,1.7-9.2s2.7-5.2,4.7-7.3c2-2,4.4-3.7,7.2-4.8c2.8-1.2,5.9-1.7,9.2-1.7
		c3.4,0,6.4,0.6,9.2,1.7c2.8,1.2,5.2,2.8,7.2,4.8c2,2,3.5,4.5,4.7,7.3s1.7,5.9,1.7,9.2c0,3.4-0.6,6.4-1.7,9.3s-2.7,5.3-4.7,7.3
		c-2,2-4.4,3.6-7.2,4.8c-2.8,1.1-5.9,1.7-9.2,1.7c-3.4,0-6.4-0.6-9.2-1.7c-2.8-1.1-5.2-2.7-7.2-4.8c-2-2-3.5-4.5-4.7-7.3
		S289,45.6,289,42.2z M293.1,42.2c0,2.7,0.4,5.3,1.3,7.6c0.9,2.4,2.1,4.4,3.7,6.1c1.6,1.7,3.6,3.1,5.9,4.1s4.9,1.5,7.7,1.5
		c2.9,0,5.4-0.5,7.7-1.5c2.3-1,4.3-2.4,5.9-4.1c1.6-1.7,2.9-3.8,3.7-6.1c0.9-2.4,1.3-4.9,1.3-7.6s-0.4-5.3-1.3-7.6
		c-0.9-2.4-2.1-4.4-3.7-6.1c-1.6-1.7-3.6-3.1-5.9-4.1c-2.3-1-4.9-1.5-7.7-1.5c-2.9,0-5.4,0.5-7.7,1.5c-2.3,1-4.3,2.4-5.9,4.1
		c-1.6,1.7-2.9,3.8-3.7,6.1C293.5,37,293.1,39.5,293.1,42.2z"/>
</g>
<path fill="#FFFFFF" d="M411.7,50c4.6,0,8.3-3.7,8.3-8.3V27.8c0-4.6-3.7-8.3-8.3-8.3s-8.3,3.7-8.3,8.3v13.9
	C403.4,46.3,407.1,50,411.7,50z M424.9,36.2c-1.2,0-2.1,0.9-2.1,2v3.5c0,6.4-5.4,11.5-11.8,11.1c-5.7-0.4-10.4-5.8-10.4-11.5v-3.1
	c0-1.1-0.9-2-2.1-2s-2.1,0.9-2.1,2V41c0,7.8,5.6,14.7,13.2,15.8v3h-3.5c-1.6,0-2.8,1.3-2.8,2.9c0,0.7,0.7,1.3,1.4,1.3h13.9
	c0.7,0,1.4-0.5,1.4-1.3c0.1-1.6-1.2-2.9-2.8-2.9h-3.5v-2.9c7.4-1,13.2-7.4,13.2-15.1v-3.5C427,37.1,426.1,36.2,424.9,36.2z"/>
<line display="none" fill="none" stroke="#F77017" stroke-width="8" stroke-miterlimit="10" x1="107" y1="427" x2="272" y2="533"/>
<line display="none" fill="none" stroke="#F77017" stroke-width="8" stroke-miterlimit="10" x1="107" y1="427" x2="-58" y2="533"/>
<g>
	<path fill="#F77017" d="M385.6,63.8c-0.4,0-0.9-0.1-1.2-0.4c-7.3-5.7-11.3-13.1-11.3-21c0-7.8,4-15.3,11.3-21
		c0.9-0.7,2.1-0.5,2.8,0.3c0.7,0.9,0.5,2.1-0.3,2.8c-6.3,4.9-9.7,11.3-9.7,17.8c0,6.6,3.5,12.9,9.7,17.8c0.9,0.7,1,1.9,0.3,2.8
		C386.8,63.5,386.2,63.8,385.6,63.8z"/>
	<path fill="#F77017" d="M376.3,68.5c-0.6,0-1.2-0.2-1.7-0.6c-7.9-7-12-15.8-12-25.5c0-9.6,4.2-18.4,12-25.5c1-0.9,2.6-0.8,3.5,0.2
		c0.9,1,0.8,2.6-0.2,3.5c-6.8,6.1-10.4,13.6-10.4,21.7c0,8.2,3.6,15.7,10.4,21.7c1,0.9,1.1,2.5,0.2,3.5
		C377.7,68.2,377,68.5,376.3,68.5z"/>
	<path fill="#F77017" d="M366.5,73.1c-0.8,0-1.5-0.3-2.1-0.9c-8.5-8.4-13-18.7-13-29.8c0-11.1,4.5-21.4,13-29.8
		c1.2-1.2,3.1-1.2,4.2,0c1.2,1.2,1.2,3.1,0,4.2c-7.3,7.2-11.2,16.1-11.2,25.6c0,9.5,3.9,18.3,11.2,25.6c1.2,1.2,1.2,3.1,0,4.2
		C368.1,72.8,367.3,73.1,366.5,73.1z"/>
	<path fill="#F77017" d="M454.5,73.1c-0.8,0-1.6-0.3-2.1-0.9c-1.2-1.2-1.1-3.1,0.1-4.2c7.3-7.1,11.2-16,11.2-25.6
		c0-9.5-3.9-18.3-11.2-25.6c-1.2-1.2-1.2-3.1,0-4.2c1.2-1.2,3.1-1.2,4.2,0c8.5,8.4,13,18.7,13,29.8c0,11.2-4.5,21.6-13,29.8
		C456,72.8,455.2,73.1,454.5,73.1z"/>
	<path fill="#F77017" d="M444.7,68.5c-0.7,0-1.4-0.3-1.9-0.8c-0.9-1-0.8-2.6,0.2-3.5c6.8-6.1,10.4-13.6,10.4-21.7
		c0-8.2-3.6-15.7-10.4-21.7c-1-0.9-1.1-2.5-0.2-3.5c0.9-1,2.5-1.1,3.5-0.2c7.9,7,12,15.8,12,25.5c0,9.6-4.2,18.4-12,25.5
		C445.9,68.3,445.3,68.5,444.7,68.5z"/>
	<path fill="#F77017" d="M435.4,63.8c-0.6,0-1.2-0.3-1.6-0.8c-0.7-0.9-0.5-2.1,0.3-2.8c6.3-4.9,9.7-11.3,9.7-17.8
		c0-6.6-3.5-12.9-9.7-17.8c-0.9-0.7-1-1.9-0.3-2.8c0.7-0.9,1.9-1,2.8-0.3c7.3,5.7,11.3,13.1,11.3,21c0,7.8-4,15.3-11.3,21
		C436.3,63.7,435.8,63.8,435.4,63.8z"/>
</g>
</svg>
