<?xml version="1.0" encoding="utf-8"?>
<!-- Generator: Adobe Illustrator 26.4.1, SVG Export Plug-In . SVG Version: 6.00 Build 0)  -->
<svg version="1.1" baseProfile="tiny" id="Layer_1" xmlns="http://www.w3.org/2000/svg" xmlns:xlink="http://www.w3.org/1999/xlink"
	 x="0px" y="0px" viewBox="0 0 200 220" overflow="visible" xml:space="preserve">
<g>
	<path fill="#F77017" d="M86.5,30.2c0,4-2.1,5.7-6.1,5.7H68.3c-3.9,0-6.1-1.6-6.1-5.7V5.7c0-3.8,2.1-5.7,6.1-5.7h12.1
		c3.9,0,6.1,1.6,6.1,5.7V30.2z M77.3,27.6V8.3h-5.9v19.4H77.3z"/>
	<path fill="#F77017" d="M114.5,30c0,4.3-2.2,5.8-6.3,5.8H96.4c-4.1,0-6.3-1.6-6.3-5.8V0h9.2v27.6h5.9V0h9.2V30z"/>
	<path fill="#F77017" d="M141.9,35.8h-9.2V23.8h-5.2v12.1h-9.2V0h17.4c4.1,0,6.3,1.6,6.3,5.9v9.2c0,2.7-1.3,4-3.3,4.6v0.1
		c2,0.3,3.3,1.5,3.3,4.2V35.8z M132.6,15.6V8.2h-5.2v7.4H132.6z"/>
</g>
<g>
	<path fill="#FFFFFF" d="M11.4,47.7H23c0.6,0,1.4,0,2.4,0.1c1,0,2.1,0.2,3.2,0.4c1.2,0.2,2.3,0.5,3.5,1c1.2,0.5,2.3,1.1,3.2,2
		c1,0.9,1.7,2,2.4,3.3c0.6,1.3,0.9,2.9,0.9,4.8c0,2.1-0.4,3.8-1.1,5.2c-0.7,1.4-1.6,2.5-2.7,3.3c-1.1,0.8-2.3,1.5-3.6,1.9
		c-1.3,0.4-2.6,0.7-3.8,0.9l12.8,21.1h-4.7L23.2,70.8h-7.6v20.9h-4.1V47.7z M15.5,67h8.7c2.2,0,3.9-0.3,5.2-0.8
		c1.3-0.5,2.4-1.2,3.1-2s1.3-1.6,1.5-2.5c0.3-0.9,0.4-1.7,0.4-2.5c0-0.7-0.1-1.6-0.4-2.5c-0.3-0.9-0.8-1.8-1.5-2.5
		c-0.7-0.8-1.8-1.4-3.1-2c-1.3-0.5-3.1-0.8-5.2-0.8h-8.7V67z"/>
	<path fill="#FFFFFF" d="M61.7,47.7h4.2l18.5,43.9h-4.6L75,80H51.8l-5,11.7h-4.3L61.7,47.7z M63.6,52.2L53.4,76.2h20.2L63.6,52.2z"
		/>
	<path fill="#FFFFFF" d="M90.2,47.7h13.6c3.8,0,7,0.5,9.7,1.4s4.9,2.1,6.6,3.6c1.8,1.4,3.1,3.1,4.2,4.8c1,1.8,1.8,3.4,2.2,5.1
		c0.5,1.6,0.8,3.1,0.9,4.4c0.1,1.3,0.2,2.2,0.2,2.8c0,0.5-0.1,1.5-0.2,2.8c-0.1,1.3-0.4,2.8-0.9,4.4c-0.5,1.6-1.2,3.3-2.2,5.1
		c-1,1.8-2.4,3.4-4.2,4.8c-1.8,1.4-4,2.6-6.6,3.6s-5.9,1.4-9.7,1.4H90.2V47.7z M94.3,87.9h8.4c2.9,0,5.6-0.4,8.1-1.1
		c2.5-0.7,4.7-1.8,6.6-3.3c1.9-1.5,3.3-3.4,4.4-5.7c1.1-2.3,1.6-5,1.6-8.2c0-3.1-0.5-5.9-1.6-8.2c-1.1-2.3-2.5-4.2-4.4-5.7
		c-1.9-1.5-4.1-2.6-6.6-3.3c-2.5-0.7-5.2-1.1-8.1-1.1h-8.4V87.9z"/>
	<path fill="#FFFFFF" d="M136.7,47.7h4.1v43.9h-4.1V47.7z"/>
	<path fill="#FFFFFF" d="M150,69.7c0-3.4,0.6-6.4,1.7-9.2s2.7-5.2,4.7-7.3c2-2,4.4-3.7,7.2-4.8c2.8-1.2,5.9-1.7,9.2-1.7
		c3.4,0,6.4,0.6,9.2,1.7c2.8,1.2,5.2,2.8,7.2,4.8c2,2,3.5,4.5,4.7,7.3s1.7,5.9,1.7,9.2c0,3.4-0.6,6.4-1.7,9.3s-2.7,5.3-4.7,7.3
		c-2,2-4.4,3.6-7.2,4.8c-2.8,1.1-5.9,1.7-9.2,1.7c-3.4,0-6.4-0.6-9.2-1.7c-2.8-1.1-5.2-2.7-7.2-4.8c-2-2-3.5-4.5-4.7-7.3
		S150,73,150,69.7z M154.1,69.7c0,2.7,0.4,5.3,1.3,7.6c0.9,2.4,2.1,4.4,3.7,6.1c1.6,1.7,3.6,3.1,5.9,4.1s4.9,1.5,7.7,1.5
		c2.9,0,5.4-0.5,7.7-1.5c2.3-1,4.3-2.4,5.9-4.1c1.6-1.7,2.9-3.8,3.7-6.1c0.9-2.4,1.3-4.9,1.3-7.6s-0.4-5.3-1.3-7.6
		c-0.9-2.4-2.1-4.4-3.7-6.1c-1.6-1.7-3.6-3.1-5.9-4.1c-2.3-1-4.9-1.5-7.7-1.5c-2.9,0-5.4,0.5-7.7,1.5c-2.3,1-4.3,2.4-5.9,4.1
		c-1.6,1.7-2.9,3.8-3.7,6.1C154.5,64.4,154.1,66.9,154.1,69.7z"/>
</g>
<path fill="#FFFFFF" d="M102,176.5c8.9,0,16.1-7.2,16.1-16.1v-26.8c0-8.9-7.2-16.1-16.1-16.1s-16.1,7.2-16.1,16.1v26.8
	C85.9,169.3,93,176.5,102,176.5z M127.5,149.7c-2.2,0-4,1.8-4,3.9v6.9c0,12.3-10.4,22.2-22.9,21.4c-11.1-0.7-20.1-11.2-20.1-22.3v-6
	c0-2.1-1.8-3.9-4-3.9s-4,1.8-4,3.9v5.4c0,15,10.7,28.4,25.5,30.5v5.9h-6.7c-3.1,0-5.5,2.5-5.4,5.6c0.1,1.4,1.3,2.4,2.7,2.4h26.8
	c1.4,0,2.6-1,2.7-2.4c0.1-3.1-2.3-5.6-5.4-5.6H106v-5.7c14.4-2,25.5-14.3,25.5-29.2v-6.9C131.5,151.5,129.7,149.7,127.5,149.7z"/>
<line display="none" fill="none" stroke="#F77017" stroke-width="8" stroke-miterlimit="10" x1="94" y1="408.7" x2="259" y2="514.7"/>
<line display="none" fill="none" stroke="#F77017" stroke-width="8" stroke-miterlimit="10" x1="94" y1="408.7" x2="-71" y2="514.7"/>
<g>
	<path fill="#F77017" d="M66.3,202.1c-0.9,0-1.7-0.3-2.4-0.8c-14-10.8-21.6-25.2-21.6-40.4c0-15,7.7-29.3,21.6-40.3
		c1.7-1.4,4.2-1.1,5.6,0.7s1.1,4.2-0.7,5.6c-12,9.5-18.6,21.6-18.6,34.1c0,12.7,6.6,24.8,18.6,34c1.7,1.4,2.1,3.9,0.7,5.6
		C68.7,201.6,67.5,202.1,66.3,202.1z"/>
	<path fill="#F77017" d="M48.5,211.1c-1.2,0-2.4-0.4-3.3-1.3C30.2,196.5,22,179.1,22,160.9s8.2-35.6,23.2-48.9
		c2.1-1.8,5.2-1.7,7.1,0.4c1.8,2.1,1.7,5.2-0.4,7.1C38.9,131,32,145.3,32,160.9s6.9,29.9,19.8,41.5c2.1,1.8,2.2,5,0.4,7.1
		C51.2,210.5,49.9,211.1,48.5,211.1z"/>
	<path fill="#F77017" d="M29.2,219.9c-1.5,0-3-0.6-4.2-1.7C8.6,202.3,0,182.5,0,160.9c0-21.4,8.6-41.3,25-57.3
		c2.4-2.3,6.2-2.3,8.5,0.1c2.3,2.4,2.3,6.2-0.1,8.5c-14,13.7-21.4,30.6-21.4,48.7c0,18.2,7.4,35.1,21.4,48.7
		c2.4,2.3,2.4,6.1,0.1,8.5C32.3,219.3,30.8,219.9,29.2,219.9z"/>
	<path fill="#F77017" d="M170.8,220c-1.6,0-3.1-0.6-4.3-1.8c-2.3-2.4-2.3-6.2,0.1-8.5c14-13.6,21.4-30.5,21.4-48.7
		c0-18.2-7.4-35.1-21.4-48.7c-2.4-2.3-2.4-6.1-0.1-8.5c2.3-2.4,6.1-2.4,8.5-0.1c16.4,15.9,25,35.7,25,57.3c0,21.6-8.7,41.4-25,57.3
		C173.8,219.4,172.3,220,170.8,220z"/>
	<path fill="#F77017" d="M151.5,211.1c-1.4,0-2.7-0.6-3.7-1.7c-1.8-2.1-1.7-5.2,0.4-7.1c13-11.6,19.8-25.9,19.8-41.5
		s-6.9-29.9-19.8-41.5c-2.1-1.8-2.2-5-0.4-7.1c1.8-2.1,5-2.2,7.1-0.4c14.9,13.3,23.2,30.7,23.2,48.9s-8.2,35.6-23.2,48.9
		C153.9,210.7,152.7,211.1,151.5,211.1z"/>
	<path fill="#F77017" d="M133.7,202.2c-1.2,0-2.4-0.5-3.1-1.5c-1.4-1.7-1.1-4.2,0.7-5.6c12-9.5,18.6-21.6,18.6-34.1
		c0-12.7-6.6-24.8-18.6-34c-1.7-1.4-2.1-3.9-0.7-5.6c1.4-1.7,3.9-2.1,5.6-0.7c14,10.8,21.6,25.2,21.6,40.4c0,15-7.7,29.3-21.6,40.3
		C135.4,201.9,134.6,202.2,133.7,202.2z"/>
</g>
</svg>
